<svg width="24.013184" height="24.021240" viewBox="0 0 24.0132 24.0212" fill="none" xmlns="http://www.w3.org/2000/svg" xmlns:xlink="http://www.w3.org/1999/xlink">
	<desc>
			Created with Pixso.
	</desc>
	<defs/>
	<path id="Vector" d="M8 12.01C8 9.79 9.79 8 12 8C14.21 8 16 9.79 16 12.01C16 14.22 14.21 16.01 12 16.01C9.79 16.01 8 14.22 8 12.01ZM5.84 12.01C5.84 15.41 8.6 18.17 12 18.17C15.41 18.17 18.17 15.41 18.17 12.01C18.17 8.6 15.41 5.84 12 5.84C8.6 5.84 5.84 8.6 5.84 12.01ZM16.97 5.59C16.97 5.88 17.06 6.16 17.21 6.39C17.37 6.63 17.6 6.82 17.86 6.93C18.12 7.03 18.41 7.06 18.69 7.01C18.97 6.95 19.23 6.82 19.43 6.61C19.63 6.41 19.77 6.16 19.83 5.88C19.88 5.6 19.85 5.31 19.74 5.04C19.63 4.78 19.45 4.55 19.21 4.4C18.98 4.24 18.7 4.15 18.41 4.15C18.03 4.15 17.66 4.31 17.39 4.58C17.12 4.85 16.97 5.21 16.97 5.59ZM7.15 21.78C5.98 21.73 5.34 21.53 4.92 21.37C4.36 21.15 3.96 20.89 3.54 20.47C3.12 20.05 2.86 19.65 2.64 19.09C2.48 18.67 2.28 18.03 2.23 16.86C2.17 15.59 2.16 15.21 2.16 12.01C2.16 8.8 2.17 8.42 2.23 7.15C2.28 5.98 2.48 5.35 2.64 4.92C2.86 4.36 3.12 3.96 3.54 3.54C3.96 3.12 4.36 2.86 4.92 2.64C5.34 2.48 5.98 2.28 7.15 2.23C8.42 2.17 8.8 2.16 12 2.16C15.21 2.16 15.59 2.17 16.85 2.23C18.03 2.28 18.66 2.48 19.08 2.64C19.64 2.86 20.04 3.12 20.47 3.54C20.89 3.96 21.15 4.36 21.36 4.92C21.53 5.34 21.72 5.98 21.78 7.15C21.83 8.42 21.85 8.8 21.85 12.01C21.85 15.21 21.83 15.59 21.78 16.86C21.72 18.03 21.53 18.67 21.36 19.09C21.15 19.65 20.89 20.05 20.47 20.47C20.05 20.89 19.64 21.15 19.08 21.37C18.66 21.53 18.03 21.73 16.85 21.78C15.59 21.84 15.21 21.85 12 21.85C8.8 21.85 8.42 21.84 7.15 21.78ZM7.05 0.07C5.77 0.13 4.9 0.33 4.14 0.63C3.35 0.93 2.68 1.34 2.01 2.01C1.34 2.68 0.93 3.35 0.63 4.14C0.33 4.9 0.13 5.78 0.07 7.05C0.01 8.33 0 8.74 0 12.01C0 15.27 0.01 15.68 0.07 16.96C0.13 18.24 0.33 19.11 0.63 19.87C0.93 20.66 1.34 21.33 2.01 22C2.68 22.67 3.35 23.08 4.14 23.39C4.9 23.68 5.77 23.89 7.05 23.94C8.33 24 8.74 24.02 12 24.02C15.26 24.02 15.67 24 16.95 23.94C18.23 23.89 19.1 23.68 19.87 23.39C20.66 23.08 21.33 22.67 21.99 22C22.66 21.33 23.07 20.66 23.38 19.87C23.68 19.11 23.88 18.24 23.94 16.96C24 15.68 24.01 15.27 24.01 12.01C24.01 8.74 24 8.33 23.94 7.05C23.88 5.78 23.68 4.9 23.38 4.14C23.07 3.35 22.66 2.68 21.99 2.01C21.33 1.34 20.66 0.93 19.87 0.63C19.1 0.33 18.23 0.13 16.95 0.07C15.67 0.01 15.26 0 12 0C8.74 0 8.33 0.01 7.05 0.07Z" fill="#FFFFFF" fill-opacity="1.000000" fill-rule="nonzero"/>
</svg>
