<svg width="20.086914" height="19.216553" viewBox="0 0 20.0869 19.2166" fill="none" xmlns="http://www.w3.org/2000/svg" xmlns:xlink="http://www.w3.org/1999/xlink">
	<desc>
			Created with Pixso.
	</desc>
	<defs/>
	<path id="Vector" d="M4.55 19.21L4.55 6.25L0.25 6.25L0.25 19.21L4.55 19.21ZM2.4 4.48C3.9 4.48 4.84 3.48 4.84 2.24C4.81 0.96 3.9 0 2.43 0C0.96 0 0 0.96 0 2.24C0 3.48 0.93 4.48 2.37 4.48L2.4 4.48ZM6.94 19.21L11.24 19.21L11.24 11.97C11.24 11.58 11.27 11.2 11.39 10.92C11.7 10.15 12.41 9.34 13.6 9.34C15.15 9.34 15.78 10.53 15.78 12.28L15.78 19.21L20.08 19.21L20.08 11.78C20.08 7.79 17.96 5.94 15.12 5.94C12.8 5.94 11.78 7.24 11.22 8.13L11.24 8.13L11.24 6.25L6.94 6.25C6.99 7.46 6.94 19.21 6.94 19.21Z" fill="#FFFFFF" fill-opacity="1.000000" fill-rule="nonzero"/>
</svg>
