<svg width="24.500977" height="20.214844" viewBox="0 0 24.501 20.2148" fill="none" xmlns="http://www.w3.org/2000/svg" xmlns:xlink="http://www.w3.org/1999/xlink">
	<desc>
			Created with Pixso.
	</desc>
	<defs/>
	<path id="Vector" d="M24.39 2.42C23.59 2.76 22.76 3 21.91 3.13C22.31 3.06 22.89 2.34 23.13 2.05C23.48 1.61 23.75 1.11 23.93 0.58C23.93 0.54 23.97 0.48 23.93 0.45C23.91 0.44 23.88 0.43 23.86 0.43C23.84 0.43 23.81 0.44 23.79 0.45C22.87 0.95 21.88 1.34 20.86 1.59C20.82 1.6 20.79 1.6 20.75 1.59C20.71 1.58 20.68 1.57 20.65 1.54C20.57 1.44 20.49 1.35 20.4 1.27C19.98 0.9 19.51 0.59 19 0.36C18.31 0.08 17.56 -0.04 16.81 0C16.09 0.05 15.38 0.24 14.74 0.58C14.1 0.92 13.55 1.4 13.1 1.97C12.63 2.55 12.29 3.23 12.1 3.96C11.95 4.66 11.93 5.37 12.05 6.07C12.05 6.19 12.05 6.21 11.95 6.19C7.88 5.59 4.55 4.15 1.83 1.05C1.71 0.92 1.64 0.92 1.55 1.05C0.36 2.86 0.94 5.71 2.42 7.12C2.62 7.31 2.82 7.49 3.04 7.66C2.36 7.61 1.7 7.43 1.09 7.12C0.98 7.04 0.91 7.08 0.91 7.22C0.89 7.41 0.89 7.6 0.91 7.79C1.03 8.7 1.38 9.56 1.95 10.29C2.51 11.01 3.25 11.58 4.1 11.92C4.31 12.01 4.52 12.08 4.74 12.12C4.11 12.24 3.47 12.26 2.83 12.18C2.7 12.15 2.65 12.22 2.7 12.35C3.53 14.64 5.35 15.33 6.69 15.72C6.87 15.75 7.05 15.75 7.26 15.79C7.26 15.79 7.26 15.79 7.22 15.83C6.83 16.55 5.24 17.03 4.51 17.28C3.18 17.76 1.76 17.94 0.35 17.82C0.13 17.78 0.08 17.79 0.02 17.82C-0.04 17.85 0.02 17.91 0.08 17.97C0.37 18.16 0.65 18.32 0.95 18.48C1.83 18.96 2.76 19.34 3.73 19.62C8.73 21 14.36 19.99 18.12 16.25C21.07 13.32 22.11 9.27 22.11 5.22C22.11 5.07 22.3 4.98 22.4 4.9C23.15 4.32 23.81 3.63 24.36 2.86C24.45 2.74 24.5 2.6 24.5 2.45C24.5 2.36 24.5 2.38 24.39 2.42Z" fill="#FFFFFF" fill-opacity="1.000000" fill-rule="nonzero"/>
</svg>
