<svg width="34.000000" height="34.000000" viewBox="0 0 34 34" fill="none" xmlns="http://www.w3.org/2000/svg" xmlns:xlink="http://www.w3.org/1999/xlink">
	<desc>
			Created with Pixso.
	</desc>
	<defs>
		<clipPath id="clip1202_26">
			<rect id="ic:baseline-phone" rx="0.000000" width="33.000000" height="33.000000" transform="translate(0.500000 0.500000)" fill="white" fill-opacity="0"/>
		</clipPath>
	</defs>
	<g clip-path="url(#clip1202_26)">
		<path id="Vector" d="M9.37 15.28C11.41 19.29 14.7 22.56 18.71 24.62L21.83 21.5C22.21 21.12 22.77 20.99 23.27 21.16C24.86 21.68 26.57 21.97 28.33 21.97C29.11 21.97 29.75 22.61 29.75 23.38L29.75 28.33C29.75 29.11 29.11 29.75 28.33 29.75C15.03 29.75 4.25 18.96 4.25 5.66C4.25 4.88 4.88 4.25 5.66 4.25L10.62 4.25C11.4 4.25 12.04 4.88 12.04 5.66C12.04 7.43 12.32 9.13 12.84 10.72C13 11.22 12.89 11.77 12.49 12.16L9.37 15.28Z" fill="#FFFFFF" fill-opacity="1.000000" fill-rule="nonzero"/>
	</g>
</svg>
