<svg width="80.000000" height="80.000000" viewBox="0 0 80 80" fill="none" xmlns="http://www.w3.org/2000/svg" xmlns:xlink="http://www.w3.org/1999/xlink">
	<desc>
			Created with Pixso.
	</desc>
	<defs/>
	<path id="Vector" d="M17.1 7.19C14.24 9.19 11.65 11.56 9.41 14.22C18.58 13.37 30.25 14.76 43.78 21.53C58.24 28.76 69.88 29 77.98 27.44C77.25 25.21 76.32 23.07 75.23 21.04C65.95 22.02 54.06 20.72 40.21 13.79C31.41 9.4 23.65 7.58 17.1 7.19ZM69.81 13.33C62.49 5.15 51.84 0 40 0C36.52 0 33.14 0.44 29.92 1.27C34.28 2.46 38.91 4.2 43.78 6.64C53.93 11.71 62.69 13.35 69.81 13.33ZM79.72 35.25C69.93 37.18 56.41 36.79 40.21 28.68C25.06 21.11 13 21.2 4.86 23.01C4.44 23.1 4.03 23.2 3.63 23.3C2.57 25.62 1.72 28.06 1.11 30.58C1.76 30.41 2.43 30.24 3.13 30.09C12.99 27.9 26.93 27.99 43.78 36.42C58.93 43.99 70.99 43.9 79.13 42.09C79.41 42.03 79.68 41.96 79.95 41.9C79.98 41.27 80 40.63 80 40C80 38.39 79.9 36.81 79.72 35.25ZM78.64 50.34C68.95 52.03 55.83 51.38 40.21 43.57C25.06 36 13 36.09 4.86 37.9C3.06 38.3 1.43 38.79 0 39.31C0 39.53 0 39.76 0 40C0 62.09 17.9 80 40 80C58.51 80 74.09 67.42 78.64 50.34Z" fill="#FFFFFF" fill-opacity="1.000000" fill-rule="evenodd"/>
</svg>
